<svg id="visual" viewBox="0 0 960 300" width="960" height="300" xmlns="http://www.w3.org/2000/svg" xmlns:xlink="http://www.w3.org/1999/xlink" version="1.1"><rect x="0" y="0" width="960" height="300" fill="#001220"></rect><path d="M0 178L8.8 177.3C17.7 176.7 35.3 175.3 53.2 178.7C71 182 89 190 106.8 188.3C124.7 186.7 142.3 175.3 160 178.2C177.7 181 195.3 198 213.2 206.2C231 214.3 249 213.7 266.8 212.7C284.7 211.7 302.3 210.3 320 202.7C337.7 195 355.3 181 373.2 177C391 173 409 179 426.8 181.7C444.7 184.3 462.3 183.7 480 181C497.7 178.3 515.3 173.7 533.2 172.7C551 171.7 569 174.3 586.8 182.5C604.7 190.7 622.3 204.3 640 207.8C657.7 211.3 675.3 204.7 693.2 203.7C711 202.7 729 207.3 746.8 202.8C764.7 198.3 782.3 184.7 800 181.2C817.7 177.7 835.3 184.3 853.2 181.3C871 178.3 889 165.7 906.8 160.8C924.7 156 942.3 159 951.2 160.5L960 162L960 301L951.2 301C942.3 301 924.7 301 906.8 301C889 301 871 301 853.2 301C835.3 301 817.7 301 800 301C782.3 301 764.7 301 746.8 301C729 301 711 301 693.2 301C675.3 301 657.7 301 640 301C622.3 301 604.7 301 586.8 301C569 301 551 301 533.2 301C515.3 301 497.7 301 480 301C462.3 301 444.7 301 426.8 301C409 301 391 301 373.2 301C355.3 301 337.7 301 320 301C302.3 301 284.7 301 266.8 301C249 301 231 301 213.2 301C195.3 301 177.7 301 160 301C142.3 301 124.7 301 106.8 301C89 301 71 301 53.2 301C35.3 301 17.7 301 8.8 301L0 301Z" fill="#fac569"></path><path d="M0 172L8.8 177.5C17.7 183 35.3 194 53.2 193C71 192 89 179 106.8 176.3C124.7 173.7 142.3 181.3 160 185.5C177.7 189.7 195.3 190.3 213.2 191.5C231 192.7 249 194.3 266.8 197C284.7 199.7 302.3 203.3 320 202.3C337.7 201.3 355.3 195.7 373.2 197.5C391 199.3 409 208.7 426.8 205.8C444.7 203 462.3 188 480 185.2C497.7 182.3 515.3 191.7 533.2 195C551 198.3 569 195.7 586.8 189.8C604.7 184 622.3 175 640 176.8C657.7 178.7 675.3 191.3 693.2 199.8C711 208.3 729 212.7 746.8 214.2C764.7 215.7 782.3 214.3 800 206.8C817.7 199.3 835.3 185.7 853.2 182.2C871 178.7 889 185.3 906.8 193.5C924.7 201.7 942.3 211.3 951.2 216.2L960 221L960 301L951.2 301C942.3 301 924.7 301 906.8 301C889 301 871 301 853.2 301C835.3 301 817.7 301 800 301C782.3 301 764.7 301 746.8 301C729 301 711 301 693.2 301C675.3 301 657.7 301 640 301C622.3 301 604.7 301 586.8 301C569 301 551 301 533.2 301C515.3 301 497.7 301 480 301C462.3 301 444.7 301 426.8 301C409 301 391 301 373.2 301C355.3 301 337.7 301 320 301C302.3 301 284.7 301 266.8 301C249 301 231 301 213.2 301C195.3 301 177.7 301 160 301C142.3 301 124.7 301 106.8 301C89 301 71 301 53.2 301C35.3 301 17.7 301 8.8 301L0 301Z" fill="#fab761"></path><path d="M0 182L8.8 187.7C17.7 193.3 35.3 204.7 53.2 206.5C71 208.3 89 200.7 106.8 197.3C124.7 194 142.3 195 160 197.3C177.7 199.7 195.3 203.3 213.2 202.8C231 202.3 249 197.7 266.8 195.3C284.7 193 302.3 193 320 193C337.7 193 355.3 193 373.2 195.7C391 198.3 409 203.7 426.8 208.3C444.7 213 462.3 217 480 216.5C497.7 216 515.3 211 533.2 207.7C551 204.3 569 202.7 586.8 204.8C604.7 207 622.3 213 640 213C657.7 213 675.3 207 693.2 208.7C711 210.3 729 219.7 746.8 223.2C764.7 226.7 782.3 224.3 800 224C817.7 223.7 835.3 225.3 853.2 223.7C871 222 889 217 906.8 215.5C924.7 214 942.3 216 951.2 217L960 218L960 301L951.2 301C942.3 301 924.7 301 906.8 301C889 301 871 301 853.2 301C835.3 301 817.7 301 800 301C782.3 301 764.7 301 746.8 301C729 301 711 301 693.2 301C675.3 301 657.7 301 640 301C622.3 301 604.7 301 586.8 301C569 301 551 301 533.2 301C515.3 301 497.7 301 480 301C462.3 301 444.7 301 426.8 301C409 301 391 301 373.2 301C355.3 301 337.7 301 320 301C302.3 301 284.7 301 266.8 301C249 301 231 301 213.2 301C195.3 301 177.7 301 160 301C142.3 301 124.7 301 106.8 301C89 301 71 301 53.2 301C35.3 301 17.7 301 8.8 301L0 301Z" fill="#f9a95c"></path><path d="M0 209L8.8 211.8C17.7 214.7 35.3 220.3 53.2 222.8C71 225.3 89 224.7 106.8 221.5C124.7 218.3 142.3 212.7 160 209C177.7 205.3 195.3 203.7 213.2 206.5C231 209.3 249 216.7 266.8 218.7C284.7 220.7 302.3 217.3 320 212.8C337.7 208.3 355.3 202.7 373.2 200.8C391 199 409 201 426.8 207.2C444.7 213.3 462.3 223.7 480 221.3C497.7 219 515.3 204 533.2 200.5C551 197 569 205 586.8 210C604.7 215 622.3 217 640 216.3C657.7 215.7 675.3 212.3 693.2 215.2C711 218 729 227 746.8 231.5C764.7 236 782.3 236 800 232.5C817.7 229 835.3 222 853.2 215.3C871 208.7 889 202.3 906.8 204.7C924.7 207 942.3 218 951.2 223.5L960 229L960 301L951.2 301C942.3 301 924.7 301 906.8 301C889 301 871 301 853.2 301C835.3 301 817.7 301 800 301C782.3 301 764.7 301 746.8 301C729 301 711 301 693.2 301C675.3 301 657.7 301 640 301C622.3 301 604.7 301 586.8 301C569 301 551 301 533.2 301C515.3 301 497.7 301 480 301C462.3 301 444.7 301 426.8 301C409 301 391 301 373.2 301C355.3 301 337.7 301 320 301C302.3 301 284.7 301 266.8 301C249 301 231 301 213.2 301C195.3 301 177.7 301 160 301C142.3 301 124.7 301 106.8 301C89 301 71 301 53.2 301C35.3 301 17.7 301 8.8 301L0 301Z" fill="#f89a58"></path><path d="M0 201L8.8 203C17.7 205 35.3 209 53.2 214.2C71 219.3 89 225.7 106.8 224C124.7 222.3 142.3 212.7 160 207.2C177.7 201.7 195.3 200.3 213.2 201.8C231 203.3 249 207.7 266.8 215.2C284.7 222.7 302.3 233.3 320 235C337.7 236.7 355.3 229.3 373.2 222.2C391 215 409 208 426.8 207.7C444.7 207.3 462.3 213.7 480 216C497.7 218.3 515.3 216.7 533.2 219.8C551 223 569 231 586.8 230.7C604.7 230.3 622.3 221.7 640 216.5C657.7 211.3 675.3 209.7 693.2 212C711 214.3 729 220.7 746.8 220.7C764.7 220.7 782.3 214.3 800 212.8C817.7 211.3 835.3 214.7 853.2 220.2C871 225.7 889 233.3 906.8 238.2C924.7 243 942.3 245 951.2 246L960 247L960 301L951.2 301C942.3 301 924.7 301 906.8 301C889 301 871 301 853.2 301C835.3 301 817.7 301 800 301C782.3 301 764.7 301 746.8 301C729 301 711 301 693.2 301C675.3 301 657.7 301 640 301C622.3 301 604.7 301 586.8 301C569 301 551 301 533.2 301C515.3 301 497.7 301 480 301C462.3 301 444.7 301 426.8 301C409 301 391 301 373.2 301C355.3 301 337.7 301 320 301C302.3 301 284.7 301 266.8 301C249 301 231 301 213.2 301C195.3 301 177.7 301 160 301C142.3 301 124.7 301 106.8 301C89 301 71 301 53.2 301C35.3 301 17.7 301 8.8 301L0 301Z" fill="#f58c56"></path><path d="M0 219L8.8 219.2C17.7 219.3 35.3 219.7 53.2 223.3C71 227 89 234 106.8 239.2C124.7 244.3 142.3 247.7 160 249.3C177.7 251 195.3 251 213.2 249.8C231 248.7 249 246.3 266.8 240.2C284.7 234 302.3 224 320 224.7C337.7 225.3 355.3 236.7 373.2 238C391 239.3 409 230.7 426.8 225.8C444.7 221 462.3 220 480 221.2C497.7 222.3 515.3 225.7 533.2 227.8C551 230 569 231 586.8 231C604.7 231 622.3 230 640 228.3C657.7 226.7 675.3 224.3 693.2 221.7C711 219 729 216 746.8 215C764.7 214 782.3 215 800 220C817.7 225 835.3 234 853.2 238C871 242 889 241 906.8 236.7C924.7 232.3 942.3 224.7 951.2 220.8L960 217L960 301L951.2 301C942.3 301 924.7 301 906.8 301C889 301 871 301 853.2 301C835.3 301 817.7 301 800 301C782.3 301 764.7 301 746.8 301C729 301 711 301 693.2 301C675.3 301 657.7 301 640 301C622.3 301 604.7 301 586.8 301C569 301 551 301 533.2 301C515.3 301 497.7 301 480 301C462.3 301 444.7 301 426.8 301C409 301 391 301 373.2 301C355.3 301 337.7 301 320 301C302.3 301 284.7 301 266.8 301C249 301 231 301 213.2 301C195.3 301 177.7 301 160 301C142.3 301 124.7 301 106.8 301C89 301 71 301 53.2 301C35.3 301 17.7 301 8.8 301L0 301Z" fill="#f27d56"></path><path d="M0 223L8.8 225.5C17.7 228 35.3 233 53.2 238.5C71 244 89 250 106.8 248C124.7 246 142.3 236 160 230.5C177.7 225 195.3 224 213.2 227.8C231 231.7 249 240.3 266.8 240.7C284.7 241 302.3 233 320 233.8C337.7 234.7 355.3 244.3 373.2 249.3C391 254.3 409 254.7 426.8 249.8C444.7 245 462.3 235 480 230.7C497.7 226.3 515.3 227.7 533.2 233.7C551 239.7 569 250.3 586.8 250.2C604.7 250 622.3 239 640 233.5C657.7 228 675.3 228 693.2 231C711 234 729 240 746.8 244.7C764.7 249.3 782.3 252.7 800 251.7C817.7 250.7 835.3 245.3 853.2 239.8C871 234.3 889 228.7 906.8 229.2C924.7 229.7 942.3 236.3 951.2 239.7L960 243L960 301L951.2 301C942.3 301 924.7 301 906.8 301C889 301 871 301 853.2 301C835.3 301 817.7 301 800 301C782.3 301 764.7 301 746.8 301C729 301 711 301 693.2 301C675.3 301 657.7 301 640 301C622.3 301 604.7 301 586.8 301C569 301 551 301 533.2 301C515.3 301 497.7 301 480 301C462.3 301 444.7 301 426.8 301C409 301 391 301 373.2 301C355.3 301 337.7 301 320 301C302.3 301 284.7 301 266.8 301C249 301 231 301 213.2 301C195.3 301 177.7 301 160 301C142.3 301 124.7 301 106.8 301C89 301 71 301 53.2 301C35.3 301 17.7 301 8.8 301L0 301Z" fill="#ee6f57"></path><path d="M0 256L8.8 254.5C17.7 253 35.3 250 53.2 248.5C71 247 89 247 106.8 247.5C124.7 248 142.3 249 160 252.3C177.7 255.7 195.3 261.3 213.2 263.5C231 265.7 249 264.3 266.8 260.5C284.7 256.7 302.3 250.3 320 246.7C337.7 243 355.3 242 373.2 244C391 246 409 251 426.8 255C444.7 259 462.3 262 480 263.5C497.7 265 515.3 265 533.2 262.5C551 260 569 255 586.8 255.2C604.7 255.3 622.3 260.7 640 261C657.7 261.3 675.3 256.7 693.2 255.2C711 253.7 729 255.3 746.8 253C764.7 250.7 782.3 244.3 800 243C817.7 241.7 835.3 245.3 853.2 250C871 254.7 889 260.3 906.8 263.7C924.7 267 942.3 268 951.2 268.5L960 269L960 301L951.2 301C942.3 301 924.7 301 906.8 301C889 301 871 301 853.2 301C835.3 301 817.7 301 800 301C782.3 301 764.7 301 746.8 301C729 301 711 301 693.2 301C675.3 301 657.7 301 640 301C622.3 301 604.7 301 586.8 301C569 301 551 301 533.2 301C515.3 301 497.7 301 480 301C462.3 301 444.7 301 426.8 301C409 301 391 301 373.2 301C355.3 301 337.7 301 320 301C302.3 301 284.7 301 266.8 301C249 301 231 301 213.2 301C195.3 301 177.7 301 160 301C142.3 301 124.7 301 106.8 301C89 301 71 301 53.2 301C35.3 301 17.7 301 8.8 301L0 301Z" fill="#e86059"></path><path d="M0 272L8.8 270.8C17.7 269.7 35.3 267.3 53.2 263C71 258.7 89 252.3 106.8 252.5C124.7 252.7 142.3 259.3 160 263.8C177.7 268.3 195.3 270.7 213.2 269.7C231 268.7 249 264.3 266.8 260C284.7 255.7 302.3 251.3 320 252C337.7 252.7 355.3 258.3 373.2 260.3C391 262.3 409 260.7 426.8 261C444.7 261.3 462.3 263.7 480 261C497.7 258.3 515.3 250.7 533.2 249.8C551 249 569 255 586.8 256C604.7 257 622.3 253 640 252.3C657.7 251.7 675.3 254.3 693.2 258C711 261.7 729 266.3 746.8 266.8C764.7 267.3 782.3 263.7 800 262.5C817.7 261.3 835.3 262.7 853.2 263.3C871 264 889 264 906.8 263.2C924.7 262.3 942.3 260.7 951.2 259.8L960 259L960 301L951.2 301C942.3 301 924.7 301 906.8 301C889 301 871 301 853.2 301C835.3 301 817.7 301 800 301C782.3 301 764.7 301 746.8 301C729 301 711 301 693.2 301C675.3 301 657.7 301 640 301C622.3 301 604.7 301 586.8 301C569 301 551 301 533.2 301C515.3 301 497.7 301 480 301C462.3 301 444.7 301 426.8 301C409 301 391 301 373.2 301C355.3 301 337.7 301 320 301C302.3 301 284.7 301 266.8 301C249 301 231 301 213.2 301C195.3 301 177.7 301 160 301C142.3 301 124.7 301 106.8 301C89 301 71 301 53.2 301C35.3 301 17.7 301 8.8 301L0 301Z" fill="#e2515c"></path><path d="M0 257L8.8 260.2C17.7 263.3 35.3 269.7 53.2 270C71 270.3 89 264.7 106.8 264C124.7 263.3 142.3 267.7 160 271.3C177.7 275 195.3 278 213.2 277.3C231 276.7 249 272.3 266.8 270.2C284.7 268 302.3 268 320 266C337.7 264 355.3 260 373.2 261.7C391 263.3 409 270.7 426.8 274.5C444.7 278.3 462.3 278.7 480 277C497.7 275.3 515.3 271.7 533.2 267.8C551 264 569 260 586.8 259.2C604.7 258.3 622.3 260.7 640 265.2C657.7 269.7 675.3 276.3 693.2 277.8C711 279.3 729 275.7 746.8 271.3C764.7 267 782.3 262 800 259.2C817.7 256.3 835.3 255.7 853.2 255.7C871 255.7 889 256.3 906.8 256.3C924.7 256.3 942.3 255.7 951.2 255.3L960 255L960 301L951.2 301C942.3 301 924.7 301 906.8 301C889 301 871 301 853.2 301C835.3 301 817.7 301 800 301C782.3 301 764.7 301 746.8 301C729 301 711 301 693.2 301C675.3 301 657.7 301 640 301C622.3 301 604.7 301 586.8 301C569 301 551 301 533.2 301C515.3 301 497.7 301 480 301C462.3 301 444.7 301 426.8 301C409 301 391 301 373.2 301C355.3 301 337.7 301 320 301C302.3 301 284.7 301 266.8 301C249 301 231 301 213.2 301C195.3 301 177.7 301 160 301C142.3 301 124.7 301 106.8 301C89 301 71 301 53.2 301C35.3 301 17.7 301 8.8 301L0 301Z" fill="#da425f"></path><path d="M0 274L8.8 274.8C17.7 275.7 35.3 277.3 53.2 278.7C71 280 89 281 106.8 279.8C124.7 278.7 142.3 275.3 160 273.2C177.7 271 195.3 270 213.2 271.8C231 273.7 249 278.3 266.8 280.2C284.7 282 302.3 281 320 278.2C337.7 275.3 355.3 270.7 373.2 271C391 271.3 409 276.7 426.8 280.5C444.7 284.3 462.3 286.7 480 286.7C497.7 286.7 515.3 284.3 533.2 282.7C551 281 569 280 586.8 278.5C604.7 277 622.3 275 640 274.2C657.7 273.3 675.3 273.7 693.2 275.3C711 277 729 280 746.8 279.2C764.7 278.3 782.3 273.7 800 273.8C817.7 274 835.3 279 853.2 278.7C871 278.3 889 272.7 906.8 271.8C924.7 271 942.3 275 951.2 277L960 279L960 301L951.2 301C942.3 301 924.7 301 906.8 301C889 301 871 301 853.2 301C835.3 301 817.7 301 800 301C782.3 301 764.7 301 746.8 301C729 301 711 301 693.2 301C675.3 301 657.7 301 640 301C622.3 301 604.7 301 586.8 301C569 301 551 301 533.2 301C515.3 301 497.7 301 480 301C462.3 301 444.7 301 426.8 301C409 301 391 301 373.2 301C355.3 301 337.7 301 320 301C302.3 301 284.7 301 266.8 301C249 301 231 301 213.2 301C195.3 301 177.7 301 160 301C142.3 301 124.7 301 106.8 301C89 301 71 301 53.2 301C35.3 301 17.7 301 8.8 301L0 301Z" fill="#d13364"></path><path d="M0 298L8.8 296.8C17.7 295.7 35.3 293.3 53.2 293C71 292.7 89 294.3 106.8 293.5C124.7 292.7 142.3 289.3 160 287.7C177.7 286 195.3 286 213.2 286C231 286 249 286 266.8 287.3C284.7 288.7 302.3 291.3 320 290.5C337.7 289.7 355.3 285.3 373.2 286C391 286.7 409 292.3 426.8 293.8C444.7 295.3 462.3 292.7 480 291C497.7 289.3 515.3 288.7 533.2 288.7C551 288.7 569 289.3 586.8 289.2C604.7 289 622.3 288 640 286.5C657.7 285 675.3 283 693.2 281.8C711 280.7 729 280.3 746.8 279.8C764.7 279.3 782.3 278.7 800 279.5C817.7 280.3 835.3 282.7 853.2 283.2C871 283.7 889 282.3 906.8 282C924.7 281.7 942.3 282.3 951.2 282.7L960 283L960 301L951.2 301C942.3 301 924.7 301 906.8 301C889 301 871 301 853.2 301C835.3 301 817.7 301 800 301C782.3 301 764.7 301 746.8 301C729 301 711 301 693.2 301C675.3 301 657.7 301 640 301C622.3 301 604.7 301 586.8 301C569 301 551 301 533.2 301C515.3 301 497.7 301 480 301C462.3 301 444.7 301 426.8 301C409 301 391 301 373.2 301C355.3 301 337.7 301 320 301C302.3 301 284.7 301 266.8 301C249 301 231 301 213.2 301C195.3 301 177.7 301 160 301C142.3 301 124.7 301 106.8 301C89 301 71 301 53.2 301C35.3 301 17.7 301 8.8 301L0 301Z" fill="#c62368"></path></svg>